<svg width="101" height="12" viewBox="0 0 101 12" fill="none" xmlns="http://www.w3.org/2000/svg">
<path d="M6.45097 8.652C6.19497 8.836 5.86697 8.968 5.46697 9.048C5.07497 9.128 4.67097 9.168 4.25497 9.168C3.75097 9.168 3.27097 9.092 2.81497 8.94C2.36697 8.78 1.97097 8.528 1.62697 8.184C1.28297 7.832 1.00697 7.38 0.798969 6.828C0.598969 6.268 0.498969 5.592 0.498969 4.8C0.498969 3.976 0.610969 3.288 0.834969 2.736C1.06697 2.176 1.36297 1.728 1.72297 1.392C2.09097 1.048 2.49897 0.803999 2.94697 0.659999C3.39497 0.507999 3.84297 0.431999 4.29097 0.431999C4.77097 0.431999 5.17497 0.464 5.50297 0.528C5.83897 0.592 6.11497 0.668 6.33097 0.756L6.00697 2.148C5.82297 2.06 5.60297 1.996 5.34697 1.956C5.09897 1.916 4.79497 1.896 4.43497 1.896C3.77097 1.896 3.23497 2.132 2.82697 2.604C2.42697 3.076 2.22697 3.808 2.22697 4.8C2.22697 5.232 2.27497 5.628 2.37097 5.988C2.46697 6.34 2.61097 6.644 2.80297 6.9C3.00297 7.148 3.24697 7.344 3.53497 7.488C3.83097 7.624 4.17097 7.692 4.55497 7.692C4.91497 7.692 5.21897 7.656 5.46697 7.584C5.71497 7.512 5.93097 7.42 6.11497 7.308L6.45097 8.652ZM12.4918 10.368H11.3518L11.1718 9H7.13975L6.95975 10.368H5.81975V7.62H6.52775C6.59175 7.532 6.67175 7.384 6.76775 7.176C6.87175 6.96 6.97175 6.668 7.06775 6.3C7.17175 5.932 7.25975 5.476 7.33175 4.932C7.40375 4.388 7.43975 3.744 7.43975 3H11.6158V7.62H12.4918V10.368ZM10.0558 7.692V4.32H8.79575C8.77975 4.608 8.75175 4.916 8.71175 5.244C8.67175 5.564 8.61975 5.876 8.55575 6.18C8.49975 6.484 8.43175 6.768 8.35175 7.032C8.27175 7.296 8.18375 7.516 8.08775 7.692H10.0558ZM18.1481 8.484C17.9081 8.676 17.5801 8.84 17.1641 8.976C16.7561 9.104 16.3201 9.168 15.8561 9.168C14.8881 9.168 14.1801 8.888 13.7321 8.328C13.2841 7.76 13.0601 6.984 13.0601 6C13.0601 4.944 13.3121 4.152 13.8161 3.624C14.3201 3.096 15.0281 2.832 15.9401 2.832C16.2441 2.832 16.5401 2.872 16.8281 2.952C17.1161 3.032 17.3721 3.164 17.5961 3.348C17.8201 3.532 18.0001 3.78 18.1361 4.092C18.2721 4.404 18.3401 4.792 18.3401 5.256C18.3401 5.424 18.3281 5.604 18.3041 5.796C18.2881 5.988 18.2601 6.188 18.2201 6.396H14.6201C14.6441 6.9 14.7721 7.28 15.0041 7.536C15.2441 7.792 15.6281 7.92 16.1561 7.92C16.4841 7.92 16.7761 7.872 17.0321 7.776C17.2961 7.672 17.4961 7.568 17.6321 7.464L18.1481 8.484ZM15.9161 4.08C15.5081 4.08 15.2041 4.204 15.0041 4.452C14.8121 4.692 14.6961 5.016 14.6561 5.424H16.8881C16.9201 4.992 16.8521 4.66 16.6841 4.428C16.5241 4.196 16.2681 4.08 15.9161 4.08ZM22.5769 4.38H21.3889C21.3409 4.948 21.2849 5.512 21.2209 6.072C21.1569 6.632 21.0529 7.136 20.9089 7.584C20.7729 8.024 20.5849 8.384 20.3449 8.664C20.1049 8.936 19.7929 9.072 19.4089 9.072C18.9449 9.072 18.6169 9.012 18.4249 8.892L18.6169 7.596C18.7449 7.644 18.8649 7.668 18.9769 7.668C19.1369 7.668 19.2769 7.6 19.3969 7.464C19.5169 7.328 19.6169 7.084 19.6969 6.732C19.7849 6.38 19.8529 5.904 19.9009 5.304C19.9569 4.696 19.9969 3.928 20.0209 3H24.1369V9H22.5769V4.38ZM25.4527 3.348C25.7727 3.204 26.1527 3.092 26.5927 3.012C27.0327 2.924 27.4927 2.88 27.9727 2.88C28.3887 2.88 28.7367 2.932 29.0167 3.036C29.2967 3.132 29.5167 3.272 29.6767 3.456C29.8447 3.64 29.9607 3.86 30.0247 4.116C30.0967 4.372 30.1327 4.66 30.1327 4.98C30.1327 5.332 30.1207 5.688 30.0967 6.048C30.0727 6.4 30.0567 6.748 30.0487 7.092C30.0487 7.436 30.0607 7.772 30.0847 8.1C30.1087 8.42 30.1687 8.724 30.2647 9.012H28.9927L28.7407 8.184H28.6807C28.5207 8.432 28.2967 8.648 28.0087 8.832C27.7287 9.008 27.3647 9.096 26.9167 9.096C26.6367 9.096 26.3847 9.056 26.1607 8.976C25.9367 8.888 25.7447 8.768 25.5847 8.616C25.4247 8.456 25.3007 8.272 25.2127 8.064C25.1247 7.848 25.0807 7.608 25.0807 7.344C25.0807 6.976 25.1607 6.668 25.3207 6.42C25.4887 6.164 25.7247 5.96 26.0287 5.808C26.3407 5.648 26.7087 5.54 27.1327 5.484C27.5647 5.42 28.0447 5.4 28.5727 5.424C28.6287 4.976 28.5967 4.656 28.4767 4.464C28.3567 4.264 28.0887 4.164 27.6727 4.164C27.3607 4.164 27.0287 4.196 26.6767 4.26C26.3327 4.324 26.0487 4.408 25.8247 4.512L25.4527 3.348ZM27.4327 7.812C27.7447 7.812 27.9927 7.744 28.1767 7.608C28.3607 7.464 28.4967 7.312 28.5847 7.152V6.372C28.3367 6.348 28.0967 6.344 27.8647 6.36C27.6407 6.376 27.4407 6.412 27.2647 6.468C27.0887 6.524 26.9487 6.604 26.8447 6.708C26.7407 6.812 26.6887 6.944 26.6887 7.104C26.6887 7.328 26.7527 7.504 26.8807 7.632C27.0167 7.752 27.2007 7.812 27.4327 7.812ZM34.9578 6.636H33.0018V9H31.4418V3H33.0018V5.256H34.9578V3H36.5178V9H34.9578V6.636ZM37.5991 6C37.5991 4.984 37.8471 4.204 38.3431 3.66C38.8391 3.108 39.5351 2.832 40.4311 2.832C40.9111 2.832 41.3271 2.908 41.6791 3.06C42.0311 3.212 42.3231 3.428 42.5551 3.708C42.7871 3.98 42.9591 4.312 43.0711 4.704C43.1911 5.096 43.2511 5.528 43.2511 6C43.2511 7.016 43.0031 7.8 42.5071 8.352C42.0191 8.896 41.3271 9.168 40.4311 9.168C39.9511 9.168 39.5351 9.092 39.1831 8.94C38.8311 8.788 38.5351 8.576 38.2951 8.304C38.0631 8.024 37.8871 7.688 37.7671 7.296C37.6551 6.904 37.5991 6.472 37.5991 6ZM39.2071 6C39.2071 6.264 39.2311 6.508 39.2791 6.732C39.3271 6.956 39.3991 7.152 39.4951 7.32C39.5911 7.488 39.7151 7.62 39.8671 7.716C40.0271 7.804 40.2151 7.848 40.4311 7.848C40.8391 7.848 41.1431 7.7 41.3431 7.404C41.5431 7.108 41.6431 6.64 41.6431 6C41.6431 5.448 41.5511 5.004 41.3671 4.668C41.1831 4.324 40.8711 4.152 40.4311 4.152C40.0471 4.152 39.7471 4.296 39.5311 4.584C39.3151 4.872 39.2071 5.344 39.2071 6ZM47.4036 0.599999H52.3836V2.064H49.0476V4.14H52.1196V5.604H49.0476V9H47.4036V0.599999ZM53.5933 3H55.1533V9H53.5933V3ZM53.3653 1.308C53.3653 1.076 53.4493 0.88 53.6173 0.719999C53.7933 0.552 54.0333 0.468 54.3373 0.468C54.6413 0.468 54.8853 0.552 55.0693 0.719999C55.2613 0.88 55.3573 1.076 55.3573 1.308C55.3573 1.54 55.2613 1.736 55.0693 1.896C54.8853 2.048 54.6413 2.124 54.3373 2.124C54.0333 2.124 53.7933 2.048 53.6173 1.896C53.4493 1.736 53.3653 1.54 53.3653 1.308ZM61.76 9C61.76 9.872 61.524 10.512 61.052 10.92C60.58 11.336 59.92 11.544 59.072 11.544C58.496 11.544 58.04 11.504 57.704 11.424C57.376 11.344 57.128 11.26 56.96 11.172L57.284 9.936C57.468 10.008 57.68 10.08 57.92 10.152C58.168 10.224 58.472 10.26 58.832 10.26C59.376 10.26 59.744 10.14 59.936 9.9C60.136 9.668 60.236 9.34 60.236 8.916V8.532H60.188C59.908 8.908 59.412 9.096 58.7 9.096C57.924 9.096 57.344 8.856 56.96 8.376C56.584 7.896 56.396 7.144 56.396 6.12C56.396 5.048 56.652 4.236 57.164 3.684C57.676 3.132 58.42 2.856 59.396 2.856C59.908 2.856 60.364 2.892 60.764 2.964C61.172 3.036 61.504 3.12 61.76 3.216V9ZM59.12 7.848C59.424 7.848 59.656 7.78 59.816 7.644C59.984 7.508 60.112 7.304 60.2 7.032V4.332C59.952 4.228 59.644 4.176 59.276 4.176C58.876 4.176 58.564 4.328 58.34 4.632C58.116 4.928 58.004 5.404 58.004 6.06C58.004 6.644 58.1 7.088 58.292 7.392C58.484 7.696 58.76 7.848 59.12 7.848ZM66.5256 9V5.736C66.5256 5.184 66.4736 4.792 66.3696 4.56C66.2656 4.328 66.0496 4.212 65.7216 4.212C65.4496 4.212 65.2296 4.288 65.0616 4.44C64.8936 4.584 64.7656 4.772 64.6776 5.004V9H63.1176V3H64.3296L64.5096 3.792H64.5576C64.7416 3.536 64.9736 3.312 65.2536 3.12C65.5416 2.928 65.9096 2.832 66.3576 2.832C66.7416 2.832 67.0536 2.912 67.2936 3.072C67.5416 3.224 67.7336 3.484 67.8696 3.852C68.0536 3.54 68.2896 3.292 68.5776 3.108C68.8656 2.924 69.2136 2.832 69.6216 2.832C69.9576 2.832 70.2416 2.872 70.4736 2.952C70.7136 3.032 70.9056 3.172 71.0496 3.372C71.2016 3.564 71.3136 3.824 71.3856 4.152C71.4576 4.48 71.4936 4.896 71.4936 5.4V9H69.9336V5.628C69.9336 5.156 69.8816 4.804 69.7776 4.572C69.6816 4.332 69.4616 4.212 69.1176 4.212C68.8376 4.212 68.6136 4.288 68.4456 4.44C68.2856 4.592 68.1656 4.8 68.0856 5.064V9H66.5256ZM72.7378 3.348C73.0578 3.204 73.4378 3.092 73.8778 3.012C74.3178 2.924 74.7778 2.88 75.2578 2.88C75.6738 2.88 76.0218 2.932 76.3018 3.036C76.5818 3.132 76.8018 3.272 76.9618 3.456C77.1298 3.64 77.2458 3.86 77.3098 4.116C77.3818 4.372 77.4178 4.66 77.4178 4.98C77.4178 5.332 77.4058 5.688 77.3818 6.048C77.3578 6.4 77.3418 6.748 77.3338 7.092C77.3338 7.436 77.3458 7.772 77.3698 8.1C77.3938 8.42 77.4538 8.724 77.5498 9.012H76.2778L76.0258 8.184H75.9658C75.8058 8.432 75.5818 8.648 75.2938 8.832C75.0138 9.008 74.6498 9.096 74.2018 9.096C73.9218 9.096 73.6698 9.056 73.4458 8.976C73.2218 8.888 73.0298 8.768 72.8698 8.616C72.7098 8.456 72.5858 8.272 72.4978 8.064C72.4098 7.848 72.3658 7.608 72.3658 7.344C72.3658 6.976 72.4458 6.668 72.6058 6.42C72.7738 6.164 73.0098 5.96 73.3138 5.808C73.6258 5.648 73.9938 5.54 74.4178 5.484C74.8498 5.42 75.3298 5.4 75.8578 5.424C75.9138 4.976 75.8818 4.656 75.7618 4.464C75.6418 4.264 75.3738 4.164 74.9578 4.164C74.6458 4.164 74.3138 4.196 73.9618 4.26C73.6178 4.324 73.3338 4.408 73.1098 4.512L72.7378 3.348ZM74.7178 7.812C75.0298 7.812 75.2778 7.744 75.4618 7.608C75.6458 7.464 75.7818 7.312 75.8698 7.152V6.372C75.6218 6.348 75.3818 6.344 75.1498 6.36C74.9258 6.376 74.7258 6.412 74.5498 6.468C74.3738 6.524 74.2338 6.604 74.1298 6.708C74.0258 6.812 73.9738 6.944 73.9738 7.104C73.9738 7.328 74.0378 7.504 74.1658 7.632C74.3018 7.752 74.4858 7.812 74.7178 7.812ZM78.547 8.208C78.547 7.928 78.635 7.708 78.811 7.548C78.987 7.38 79.219 7.296 79.507 7.296C79.811 7.296 80.051 7.38 80.227 7.548C80.403 7.708 80.491 7.928 80.491 8.208C80.491 8.488 80.403 8.712 80.227 8.88C80.051 9.048 79.811 9.132 79.507 9.132C79.219 9.132 78.987 9.048 78.811 8.88C78.635 8.712 78.547 8.488 78.547 8.208ZM81.8121 3H83.3721V9H81.8121V3ZM81.5841 1.308C81.5841 1.076 81.6681 0.88 81.8361 0.719999C82.0121 0.552 82.2521 0.468 82.5561 0.468C82.8601 0.468 83.1041 0.552 83.2881 0.719999C83.4801 0.88 83.5761 1.076 83.5761 1.308C83.5761 1.54 83.4801 1.736 83.2881 1.896C83.1041 2.048 82.8601 2.124 82.5561 2.124C82.2521 2.124 82.0121 2.048 81.8361 1.896C81.6681 1.736 81.5841 1.54 81.5841 1.308ZM88.5748 9V5.592C88.5748 5.104 88.5028 4.752 88.3588 4.536C88.2228 4.32 87.9868 4.212 87.6508 4.212C87.3548 4.212 87.1028 4.3 86.8948 4.476C86.6948 4.644 86.5508 4.856 86.4628 5.112V9H84.9028V3H86.1388L86.3188 3.792H86.3668C86.5508 3.536 86.7948 3.312 87.0988 3.12C87.4028 2.928 87.7948 2.832 88.2748 2.832C88.5708 2.832 88.8348 2.872 89.0668 2.952C89.2988 3.032 89.4948 3.164 89.6548 3.348C89.8148 3.532 89.9348 3.784 90.0148 4.104C90.0948 4.416 90.1348 4.804 90.1348 5.268V9H88.5748ZM90.8898 3H91.7178V2.664C91.7178 1.904 91.8778 1.356 92.1978 1.02C92.5178 0.676 92.9818 0.504 93.5898 0.504C94.2298 0.504 94.7618 0.58 95.1858 0.732L94.8858 1.98C94.7018 1.916 94.5378 1.876 94.3938 1.86C94.2578 1.836 94.1138 1.824 93.9618 1.824C93.8018 1.824 93.6738 1.848 93.5778 1.896C93.4898 1.944 93.4218 2.02 93.3738 2.124C93.3338 2.22 93.3058 2.344 93.2898 2.496C93.2818 2.64 93.2778 2.808 93.2778 3H94.5978V4.32H93.2778V9H91.7178V4.32H90.8898V3ZM94.9507 6C94.9507 4.984 95.1987 4.204 95.6947 3.66C96.1907 3.108 96.8867 2.832 97.7827 2.832C98.2627 2.832 98.6787 2.908 99.0307 3.06C99.3827 3.212 99.6747 3.428 99.9067 3.708C100.139 3.98 100.311 4.312 100.423 4.704C100.543 5.096 100.603 5.528 100.603 6C100.603 7.016 100.355 7.8 99.8587 8.352C99.3707 8.896 98.6787 9.168 97.7827 9.168C97.3027 9.168 96.8867 9.092 96.5347 8.94C96.1827 8.788 95.8867 8.576 95.6467 8.304C95.4147 8.024 95.2387 7.688 95.1187 7.296C95.0067 6.904 94.9507 6.472 94.9507 6ZM96.5587 6C96.5587 6.264 96.5827 6.508 96.6307 6.732C96.6787 6.956 96.7507 7.152 96.8467 7.32C96.9427 7.488 97.0667 7.62 97.2187 7.716C97.3787 7.804 97.5667 7.848 97.7827 7.848C98.1907 7.848 98.4947 7.7 98.6947 7.404C98.8947 7.108 98.9947 6.64 98.9947 6C98.9947 5.448 98.9027 5.004 98.7187 4.668C98.5347 4.324 98.2227 4.152 97.7827 4.152C97.3987 4.152 97.0987 4.296 96.8827 4.584C96.6667 4.872 96.5587 5.344 96.5587 6Z" fill="#D0D0D0"/>
<path d="M0.0429688 10.2H100.999V10.8H0.0429688V10.2Z" fill="#D0D0D0"/>
</svg>
