<svg width="263" height="27" viewBox="0 0 263 27" fill="none" xmlns="http://www.w3.org/2000/svg">
<path d="M13.1221 0.00799775C14.5621 0.00799775 15.7861 0.211998 16.7941 0.619998C17.8021 1.028 18.7861 1.604 19.7461 2.348C20.0101 2.564 20.2381 2.672 20.4301 2.672C20.9101 2.672 21.2221 1.952 21.3661 0.512H22.1941C22.0981 2.144 22.0501 5.048 22.0501 9.224H21.2221C21.0061 7.448 20.7181 6.092 20.3581 5.156C19.9981 4.22 19.3861 3.404 18.5221 2.708C17.9221 2.132 17.2261 1.7 16.4341 1.412C15.6421 1.1 14.8141 0.943999 13.9501 0.943999C11.5261 0.943999 9.72608 2.132 8.55008 4.508C7.37408 6.86 6.78608 9.8 6.78608 13.328C6.78608 16.832 7.39808 19.76 8.62208 22.112C9.84608 24.464 11.6701 25.64 14.0941 25.64C14.9101 25.64 15.7141 25.496 16.5061 25.208C17.3221 24.896 18.0061 24.452 18.5581 23.876C19.4461 23.204 20.0581 22.364 20.3941 21.356C20.7541 20.348 21.0301 18.872 21.2221 16.928H22.0501C22.0501 21.272 22.0981 24.296 22.1941 26H21.3661C21.2941 25.232 21.1861 24.692 21.0421 24.38C20.9221 24.044 20.7421 23.876 20.5021 23.876C20.3101 23.876 20.0581 23.972 19.7461 24.164C18.6661 24.932 17.6341 25.52 16.6501 25.928C15.6661 26.312 14.4781 26.504 13.0861 26.504C10.5421 26.504 8.31008 25.988 6.39008 24.956C4.49408 23.924 3.01808 22.436 1.96208 20.492C0.906078 18.524 0.378078 16.184 0.378078 13.472C0.378078 10.832 0.918078 8.492 1.99808 6.452C3.07808 4.412 4.57808 2.828 6.49808 1.7C8.44208 0.571998 10.6501 0.00799775 13.1221 0.00799775ZM45.1649 20.528C45.1649 22.736 45.2489 24.56 45.4169 26C43.7849 25.928 41.0369 25.892 37.1729 25.892C31.9409 25.892 28.0289 25.928 25.4369 26V25.28C26.2289 25.232 26.8049 25.136 27.1649 24.992C27.5489 24.848 27.8009 24.572 27.9209 24.164C28.0649 23.756 28.1369 23.096 28.1369 22.184V4.328C28.1369 3.416 28.0649 2.756 27.9209 2.348C27.8009 1.94 27.5489 1.664 27.1649 1.52C26.8049 1.376 26.2289 1.28 25.4369 1.232V0.512C28.0289 0.583999 31.9409 0.619998 37.1729 0.619998C40.7009 0.619998 43.2089 0.583999 44.6969 0.512C44.5289 2.504 44.4449 4.28 44.4449 5.84C44.4449 6.896 44.4809 7.712 44.5529 8.288H43.7249C43.3649 5.72 42.7169 3.92 41.7809 2.888C40.8449 1.856 39.5249 1.34 37.8209 1.34H36.3449C35.6009 1.34 35.0609 1.4 34.7249 1.52C34.3889 1.64 34.1609 1.88 34.0409 2.24C33.9209 2.576 33.8609 3.128 33.8609 3.896V12.824H35.0129C36.2849 12.824 37.2449 12.356 37.8929 11.42C38.5649 10.484 39.0329 9.368 39.2969 8.072H40.1249C40.0529 9.08 40.0169 10.208 40.0169 11.456V13.184C40.0169 14.408 40.0889 16.112 40.2329 18.296H39.4049C38.9009 15.128 37.4369 13.544 35.0129 13.544H33.8609V22.616C33.8609 23.384 33.9209 23.948 34.0409 24.308C34.1609 24.644 34.3889 24.872 34.7249 24.992C35.0609 25.112 35.6009 25.172 36.3449 25.172H38.1089C39.8129 25.172 41.1809 24.596 42.2129 23.444C43.2689 22.268 44.0129 20.288 44.4449 17.504H45.2729C45.2009 18.296 45.1649 19.304 45.1649 20.528ZM58.0813 0.00799775C60.5533 0.00799775 62.5333 0.499998 64.0213 1.484C65.5333 2.444 66.2893 3.764 66.2893 5.444C66.2653 7.268 65.4013 8.78 63.6973 9.98C62.0173 11.18 60.0853 12.02 57.9013 12.5C59.5093 12.524 61.0573 12.788 62.5453 13.292C64.0573 13.796 65.2813 14.552 66.2173 15.56C67.1773 16.544 67.6573 17.744 67.6573 19.16C67.6573 20.672 67.1173 21.992 66.0373 23.12C64.9813 24.224 63.5893 25.064 61.8613 25.64C60.1573 26.216 58.3333 26.504 56.3893 26.504C53.6533 26.504 51.4933 25.94 49.9093 24.812C49.3333 24.404 48.8533 23.924 48.4693 23.372C48.1093 22.796 47.9293 22.172 47.9293 21.5C47.9293 20.612 48.2173 19.904 48.7933 19.376C49.3933 18.824 50.1253 18.548 50.9893 18.548C51.8533 18.548 52.5373 18.8 53.0413 19.304C53.5693 19.808 53.8333 20.516 53.8333 21.428C53.8333 22.172 53.5813 22.82 53.0773 23.372C52.5973 23.9 51.9253 24.26 51.0613 24.452C51.5173 24.836 52.1653 25.148 53.0053 25.388C53.8453 25.604 54.7813 25.712 55.8133 25.712C57.8053 25.712 59.3533 25.16 60.4573 24.056C61.5853 22.928 62.1493 21.32 62.1493 19.232C62.1493 17.456 61.7413 15.968 60.9253 14.768C60.1093 13.544 58.9093 12.896 57.3253 12.824C56.7493 13.136 56.2333 13.292 55.7773 13.292C55.5613 13.292 55.3813 13.244 55.2373 13.148C55.0933 13.028 55.0213 12.872 55.0213 12.68C55.0213 12.296 55.2973 12.104 55.8493 12.104C56.1853 12.104 56.6893 12.176 57.3613 12.32C58.6093 11.816 59.4853 11.024 59.9893 9.944C60.4933 8.864 60.7453 7.58 60.7453 6.092C60.7453 4.34 60.4093 3.068 59.7373 2.276C59.0653 1.46 58.0693 1.052 56.7493 1.052C54.8293 1.052 53.3413 1.772 52.2853 3.212C51.2293 4.652 50.6293 6.5 50.4853 8.756H49.6573C49.6573 4.652 49.6093 1.868 49.5133 0.403999H50.3413C50.4133 1.1 50.5093 1.604 50.6293 1.916C50.7733 2.204 50.9773 2.348 51.2413 2.348C51.3613 2.348 51.4933 2.312 51.6373 2.24C51.7813 2.168 51.9373 2.072 52.1053 1.952C53.0413 1.28 53.9053 0.787998 54.6973 0.475998C55.5133 0.163998 56.6413 0.00799775 58.0813 0.00799775ZM82.9775 0.00799775C85.5215 0.00799775 87.7415 0.523998 89.6375 1.556C91.5575 2.588 93.0455 4.088 94.1015 6.056C95.1575 8 95.6855 10.328 95.6855 13.04C95.6855 15.68 95.1455 18.02 94.0655 20.06C92.9855 22.1 91.4735 23.684 89.5295 24.812C87.6095 25.94 85.4135 26.504 82.9415 26.504C80.3975 26.504 78.1655 25.988 76.2455 24.956C74.3495 23.924 72.8735 22.436 71.8175 20.492C70.7615 18.524 70.2335 16.184 70.2335 13.472C70.2335 10.832 70.7735 8.492 71.8535 6.452C72.9335 4.412 74.4335 2.828 76.3535 1.7C78.2975 0.571998 80.5055 0.00799775 82.9775 0.00799775ZM82.8335 0.655998C81.5135 0.655998 80.3495 1.196 79.3415 2.276C78.3335 3.332 77.5535 4.82 77.0015 6.74C76.4735 8.66 76.2095 10.856 76.2095 13.328C76.2095 15.824 76.5095 18.02 77.1095 19.916C77.7335 21.812 78.5615 23.276 79.5935 24.308C80.6495 25.34 81.8135 25.856 83.0855 25.856C84.4055 25.856 85.5695 25.328 86.5775 24.272C87.5855 23.192 88.3535 21.692 88.8815 19.772C89.4335 17.852 89.7095 15.656 89.7095 13.184C89.7095 10.688 89.3975 8.492 88.7735 6.596C88.1735 4.7 87.3455 3.236 86.2895 2.204C85.2575 1.172 84.1055 0.655998 82.8335 0.655998ZM124.563 1.232C123.747 1.28 123.159 1.376 122.799 1.52C122.439 1.664 122.187 1.94 122.043 2.348C121.923 2.756 121.863 3.416 121.863 4.328V22.184C121.863 23.096 121.923 23.756 122.043 24.164C122.187 24.572 122.439 24.848 122.799 24.992C123.159 25.136 123.747 25.232 124.563 25.28V26C123.387 25.928 121.563 25.892 119.091 25.892C116.667 25.892 114.783 25.928 113.439 26V25.28C114.231 25.232 114.807 25.136 115.167 24.992C115.551 24.848 115.803 24.572 115.923 24.164C116.067 23.756 116.139 23.096 116.139 22.184V13.544H106.599V22.184C106.599 23.096 106.659 23.756 106.779 24.164C106.923 24.572 107.175 24.848 107.535 24.992C107.895 25.136 108.483 25.232 109.299 25.28V26C108.003 25.928 106.191 25.892 103.863 25.892C101.295 25.892 99.3992 25.928 98.1752 26V25.28C98.9672 25.232 99.5432 25.136 99.9032 24.992C100.287 24.848 100.539 24.572 100.659 24.164C100.803 23.756 100.875 23.096 100.875 22.184V4.328C100.875 3.416 100.803 2.756 100.659 2.348C100.539 1.94 100.287 1.664 99.9032 1.52C99.5432 1.376 98.9672 1.28 98.1752 1.232V0.512C99.3992 0.583999 101.295 0.619998 103.863 0.619998C106.191 0.619998 108.003 0.583999 109.299 0.512V1.232C108.483 1.28 107.895 1.376 107.535 1.52C107.175 1.664 106.923 1.94 106.779 2.348C106.659 2.756 106.599 3.416 106.599 4.328V12.824H116.139V4.328C116.139 3.416 116.067 2.756 115.923 2.348C115.803 1.94 115.551 1.664 115.167 1.52C114.807 1.376 114.231 1.28 113.439 1.232V0.512C114.783 0.583999 116.667 0.619998 119.091 0.619998C121.563 0.619998 123.387 0.583999 124.563 0.512V1.232ZM143.765 6.884C145.613 6.884 147.077 7.292 148.157 8.108C149.237 8.9 149.777 10.016 149.777 11.456C149.777 12.44 149.489 13.352 148.913 14.192C148.361 15.032 147.701 15.776 146.933 16.424C146.165 17.072 145.109 17.876 143.765 18.836C142.037 20.036 140.825 20.996 140.129 21.716H147.905C148.553 21.716 149.033 21.668 149.345 21.572C149.681 21.476 149.909 21.32 150.029 21.104C150.149 20.888 150.245 20.552 150.317 20.096H151.073C151.073 22.928 151.121 24.956 151.217 26.18C150.689 26.06 148.901 26 145.853 26H135.377V25.316C135.689 24.98 136.301 24.404 137.213 23.588C138.605 22.316 139.757 21.188 140.669 20.204C141.605 19.196 142.409 18.044 143.081 16.748C143.777 15.428 144.125 14.06 144.125 12.644C144.125 11.372 143.837 10.448 143.261 9.872C142.709 9.272 141.881 8.972 140.777 8.972C139.769 8.972 138.869 9.212 138.077 9.692C137.309 10.148 136.601 10.832 135.953 11.744L135.341 11.384C137.117 8.384 139.925 6.884 143.765 6.884ZM164.517 6.884C166.413 6.884 168.105 7.28 169.593 8.072C171.081 8.864 172.233 9.98 173.049 11.42C173.889 12.86 174.309 14.516 174.309 16.388C174.309 18.308 173.877 20.036 173.013 21.572C172.173 23.108 170.973 24.32 169.413 25.208C167.877 26.072 166.113 26.504 164.121 26.504C162.249 26.504 160.569 26.108 159.081 25.316C157.593 24.524 156.429 23.408 155.589 21.968C154.749 20.528 154.329 18.86 154.329 16.964C154.329 15.068 154.749 13.352 155.589 11.816C156.453 10.28 157.653 9.08 159.189 8.216C160.725 7.328 162.501 6.884 164.517 6.884ZM164.193 7.532C163.329 7.532 162.561 7.904 161.889 8.648C161.217 9.392 160.689 10.472 160.305 11.888C159.945 13.28 159.765 14.936 159.765 16.856C159.765 19.904 160.197 22.172 161.061 23.66C161.949 25.124 163.077 25.856 164.445 25.856C165.309 25.856 166.065 25.484 166.713 24.74C167.385 23.972 167.913 22.892 168.297 21.5C168.681 20.084 168.873 18.416 168.873 16.496C168.873 13.448 168.429 11.192 167.541 9.728C166.677 8.264 165.561 7.532 164.193 7.532ZM185.812 6.884C187.66 6.884 189.124 7.292 190.204 8.108C191.284 8.9 191.824 10.016 191.824 11.456C191.824 12.44 191.536 13.352 190.96 14.192C190.408 15.032 189.748 15.776 188.98 16.424C188.212 17.072 187.156 17.876 185.812 18.836C184.084 20.036 182.872 20.996 182.176 21.716H189.952C190.6 21.716 191.08 21.668 191.392 21.572C191.728 21.476 191.956 21.32 192.076 21.104C192.196 20.888 192.292 20.552 192.364 20.096H193.12C193.12 22.928 193.168 24.956 193.264 26.18C192.736 26.06 190.948 26 187.9 26H177.424V25.316C177.736 24.98 178.348 24.404 179.26 23.588C180.652 22.316 181.804 21.188 182.716 20.204C183.652 19.196 184.456 18.044 185.128 16.748C185.824 15.428 186.172 14.06 186.172 12.644C186.172 11.372 185.884 10.448 185.308 9.872C184.756 9.272 183.928 8.972 182.824 8.972C181.816 8.972 180.916 9.212 180.124 9.692C179.356 10.148 178.648 10.832 178 11.744L177.388 11.384C179.164 8.384 181.972 6.884 185.812 6.884ZM206.564 6.884C208.46 6.884 210.152 7.28 211.64 8.072C213.128 8.864 214.28 9.98 215.096 11.42C215.936 12.86 216.356 14.516 216.356 16.388C216.356 18.308 215.924 20.036 215.06 21.572C214.22 23.108 213.02 24.32 211.46 25.208C209.924 26.072 208.16 26.504 206.168 26.504C204.296 26.504 202.616 26.108 201.128 25.316C199.64 24.524 198.476 23.408 197.636 21.968C196.796 20.528 196.376 18.86 196.376 16.964C196.376 15.068 196.796 13.352 197.636 11.816C198.5 10.28 199.7 9.08 201.236 8.216C202.772 7.328 204.548 6.884 206.564 6.884ZM206.24 7.532C205.376 7.532 204.608 7.904 203.936 8.648C203.264 9.392 202.736 10.472 202.352 11.888C201.992 13.28 201.812 14.936 201.812 16.856C201.812 19.904 202.244 22.172 203.108 23.66C203.996 25.124 205.124 25.856 206.492 25.856C207.356 25.856 208.112 25.484 208.76 24.74C209.432 23.972 209.96 22.892 210.344 21.5C210.728 20.084 210.92 18.416 210.92 16.496C210.92 13.448 210.476 11.192 209.588 9.728C208.724 8.264 207.608 7.532 206.24 7.532ZM220.299 26.504H219.111L228.903 0.00799775H230.091L220.299 26.504ZM240.445 6.884C242.293 6.884 243.757 7.292 244.837 8.108C245.917 8.9 246.457 10.016 246.457 11.456C246.457 12.44 246.169 13.352 245.593 14.192C245.041 15.032 244.381 15.776 243.613 16.424C242.845 17.072 241.789 17.876 240.445 18.836C238.717 20.036 237.505 20.996 236.809 21.716H244.585C245.233 21.716 245.713 21.668 246.025 21.572C246.361 21.476 246.589 21.32 246.709 21.104C246.829 20.888 246.925 20.552 246.997 20.096H247.753C247.753 22.928 247.801 24.956 247.897 26.18C247.369 26.06 245.581 26 242.533 26H232.057V25.316C232.369 24.98 232.981 24.404 233.893 23.588C235.285 22.316 236.437 21.188 237.349 20.204C238.285 19.196 239.089 18.044 239.761 16.748C240.457 15.428 240.805 14.06 240.805 12.644C240.805 11.372 240.517 10.448 239.941 9.872C239.389 9.272 238.561 8.972 237.457 8.972C236.449 8.972 235.549 9.212 234.757 9.692C233.989 10.148 233.281 10.832 232.633 11.744L232.021 11.384C233.797 8.384 236.605 6.884 240.445 6.884ZM259.541 22.508C259.541 23.54 259.733 24.26 260.117 24.668C260.501 25.052 261.173 25.244 262.133 25.244V26C259.541 25.904 257.885 25.856 257.165 25.856C256.373 25.856 254.645 25.892 251.981 25.964L250.973 26V25.244C252.101 25.244 252.941 25.028 253.493 24.596C254.069 24.164 254.357 23.396 254.357 22.292V13.508C254.357 12.356 254.249 11.516 254.033 10.988C253.841 10.436 253.505 10.076 253.025 9.908C252.545 9.716 251.813 9.62 250.829 9.62V8.828C252.917 8.78 254.633 8.624 255.977 8.36C257.321 8.072 258.509 7.616 259.541 6.992V22.508Z" fill="white"/>
</svg>
